<svg width="1440" height="380" viewBox="0 0 1440 380" fill="none" xmlns="http://www.w3.org/2000/svg">
<rect width="1440" height="380" fill="#BF7245"/>
<path d="M0 380L1440 1V380H0Z" fill="#8C4227" fill-opacity="0.8"/>
<circle cx="1397" cy="149" r="20" fill="#BF7245"/>
<circle cx="1389" cy="329" r="20" fill="#BF7245"/>
<circle cx="1274" cy="227" r="20" fill="#BF7245"/>
<circle cx="1076" cy="180" r="20" fill="#BF7245"/>
<circle cx="886" cy="259" r="20" fill="#BF7245"/>
<circle cx="696" cy="337" r="20" fill="#BF7245"/>
<circle cx="945" cy="339" r="20" fill="#BF7245"/>
<circle cx="1209" cy="346" r="20" fill="#BF7245"/>
<circle cx="1262" cy="94" r="20" fill="#BF7245"/>
<circle cx="458" cy="299" r="20" fill="#BF7245"/>
<circle cx="1164" cy="132" r="10" fill="#BF7245"/>
<circle cx="1383" cy="64" r="10" fill="#BF7245"/>
<circle cx="1181.5" cy="241.5" r="7.5" fill="#BF7245"/>
<circle cx="1388.5" cy="224.5" r="7.5" fill="#BF7245"/>
<circle cx="393.5" cy="358.5" r="7.5" fill="#BF7245"/>
<circle cx="751.5" cy="226.5" r="7.5" fill="#BF7245"/>
<circle cx="795" cy="344" r="10" fill="#BF7245"/>
<circle cx="630" cy="271" r="10" fill="#BF7245"/>
<circle cx="548" cy="349" r="10" fill="#BF7245"/>
<circle cx="327" cy="324" r="10" fill="#BF7245"/>
<circle cx="190" cy="359" r="10" fill="#BF7245"/>
</svg>
