<svg width="222" height="41" viewBox="0 0 222 41" fill="none" xmlns="http://www.w3.org/2000/svg">
<rect width="222" height="41" rx="20.5" fill="#F2F2F2"/>
<path d="M29.9141 15.9183C29.8194 15.0778 29.4287 14.4268 28.7422 13.9651C28.0556 13.4976 27.1915 13.2638 26.1499 13.2638C25.4041 13.2638 24.759 13.3821 24.2145 13.6189C23.67 13.8497 23.2468 14.1693 22.945 14.5777C22.649 14.9802 22.5011 15.4388 22.5011 15.9538C22.5011 16.3858 22.6017 16.7587 22.8029 17.0724C23.0101 17.3861 23.2794 17.6494 23.6108 17.8625C23.9482 18.0696 24.3092 18.2442 24.6939 18.3863C25.0786 18.5224 25.4485 18.6349 25.8036 18.7236L27.5792 19.1853C28.1592 19.3273 28.754 19.5197 29.3636 19.7624C29.9732 20.005 30.5385 20.3246 31.0593 20.7212C31.5801 21.1177 32.0004 21.6089 32.32 22.1949C32.6455 22.7808 32.8082 23.4822 32.8082 24.2989C32.8082 25.3288 32.5419 26.2432 32.0092 27.0422C31.4825 27.8412 30.716 28.4715 29.7099 28.9332C28.7096 29.3948 27.4993 29.6256 26.0788 29.6256C24.7176 29.6256 23.5398 29.4096 22.5455 28.9776C21.5511 28.5455 20.7728 27.9329 20.2106 27.1398C19.6483 26.3408 19.3376 25.3939 19.2784 24.2989H22.0305C22.0838 24.9559 22.2969 25.5034 22.6697 25.9413C23.0485 26.3734 23.5309 26.696 24.1168 26.909C24.7087 27.1162 25.3568 27.2197 26.0611 27.2197C26.8364 27.2197 27.5259 27.0984 28.1296 26.8558C28.7392 26.6072 29.2186 26.2639 29.5678 25.8259C29.917 25.382 30.0916 24.8642 30.0916 24.2723C30.0916 23.7337 29.9377 23.2928 29.63 22.9495C29.3281 22.6062 28.9168 22.3221 28.396 22.0972C27.881 21.8723 27.2981 21.6741 26.647 21.5024L24.4986 20.9165C23.0426 20.5199 21.8885 19.937 21.0362 19.1675C20.1899 18.3981 19.7667 17.3801 19.7667 16.1136C19.7667 15.066 20.0508 14.1516 20.619 13.3703C21.1871 12.5891 21.9566 11.9824 22.9272 11.5504C23.8978 11.1124 24.9928 10.8934 26.212 10.8934C27.4431 10.8934 28.5291 11.1094 29.4702 11.5415C30.4171 11.9735 31.1629 12.5683 31.7074 13.3259C32.2519 14.0776 32.536 14.9417 32.5597 15.9183H29.9141ZM38.5278 21.2272V29.3238H35.8733V15.6874H38.4213V17.9069H38.5899C38.9036 17.1848 39.3949 16.6048 40.0637 16.1668C40.7384 15.7289 41.5877 15.5099 42.6116 15.5099C43.5408 15.5099 44.3546 15.7052 45.053 16.0958C45.7514 16.4805 46.2929 17.0546 46.6776 17.8181C47.0624 18.5816 47.2547 19.5256 47.2547 20.6501V29.3238H44.6002V20.9697C44.6002 19.9813 44.3428 19.209 43.8279 18.6526C43.3129 18.0904 42.6057 17.8092 41.7061 17.8092C41.0905 17.8092 40.5431 17.9424 40.0637 18.2087C39.5902 18.4751 39.2143 18.8657 38.9362 19.3806C38.6639 19.8896 38.5278 20.5051 38.5278 21.2272ZM56.5587 29.599C55.2803 29.599 54.1646 29.306 53.2117 28.7201C52.2588 28.1342 51.519 27.3144 50.9923 26.2609C50.4655 25.2074 50.2021 23.9764 50.2021 22.5678C50.2021 21.1532 50.4655 19.9162 50.9923 18.8568C51.519 17.7974 52.2588 16.9747 53.2117 16.3888C54.1646 15.8028 55.2803 15.5099 56.5587 15.5099C57.8371 15.5099 58.9527 15.8028 59.9056 16.3888C60.8585 16.9747 61.5983 17.7974 62.1251 18.8568C62.6518 19.9162 62.9152 21.1532 62.9152 22.5678C62.9152 23.9764 62.6518 25.2074 62.1251 26.2609C61.5983 27.3144 60.8585 28.1342 59.9056 28.7201C58.9527 29.306 57.8371 29.599 56.5587 29.599ZM56.5676 27.3707C57.3962 27.3707 58.0827 27.1517 58.6272 26.7137C59.1717 26.2757 59.5742 25.6928 59.8346 24.9648C60.1009 24.2368 60.2341 23.4348 60.2341 22.5589C60.2341 21.6888 60.1009 20.8898 59.8346 20.1619C59.5742 19.428 59.1717 18.8391 58.6272 18.3952C58.0827 17.9513 57.3962 17.7293 56.5676 17.7293C55.733 17.7293 55.0406 17.9513 54.4901 18.3952C53.9456 18.8391 53.5402 19.428 53.2739 20.1619C53.0135 20.8898 52.8833 21.6888 52.8833 22.5589C52.8833 23.4348 53.0135 24.2368 53.2739 24.9648C53.5402 25.6928 53.9456 26.2757 54.4901 26.7137C55.0406 27.1517 55.733 27.3707 56.5676 27.3707ZM74.5163 23.6686V15.6874H77.1797V29.3238H74.5696V26.9623H74.4276C74.1139 27.6903 73.6108 28.2969 72.9183 28.7822C72.2318 29.2616 71.3765 29.5013 70.3526 29.5013C69.4767 29.5013 68.7013 29.309 68.0266 28.9243C67.3578 28.5337 66.8311 27.9566 66.4464 27.1931C66.0676 26.4296 65.8782 25.4856 65.8782 24.3611V15.6874H68.5327V24.0415C68.5327 24.9707 68.7901 25.7105 69.305 26.2609C69.82 26.8114 70.4888 27.0866 71.3114 27.0866C71.8086 27.0866 72.3028 26.9623 72.794 26.7137C73.2912 26.4651 73.7025 26.0893 74.0281 25.5862C74.3595 25.0831 74.5223 24.4439 74.5163 23.6686ZM87.1118 15.6874V17.8181H79.6633V15.6874H87.1118ZM81.6608 12.4204H84.3153V25.3199C84.3153 25.8348 84.3922 26.2225 84.5461 26.4829C84.7 26.7374 84.8982 26.912 85.1409 27.0067C85.3895 27.0955 85.6588 27.1398 85.9488 27.1398C86.1618 27.1398 86.3483 27.125 86.5081 27.0955C86.6679 27.0659 86.7922 27.0422 86.8809 27.0244L87.3604 29.2173C87.2065 29.2764 86.9875 29.3356 86.7034 29.3948C86.4193 29.4599 86.0642 29.4954 85.6381 29.5013C84.9397 29.5132 84.2886 29.3889 83.6849 29.1285C83.0812 28.8681 82.593 28.4656 82.2201 27.9211C81.8472 27.3766 81.6608 26.693 81.6608 25.8703V12.4204Z" fill="#8C4227"/>
<path d="M137.467 15.5945C137.372 14.754 136.982 14.103 136.295 13.6413C135.609 13.1738 134.745 12.94 133.703 12.94C132.957 12.94 132.312 13.0584 131.767 13.2951C131.223 13.5259 130.8 13.8455 130.498 14.2539C130.202 14.6564 130.054 15.1151 130.054 15.63C130.054 16.062 130.155 16.4349 130.356 16.7486C130.563 17.0623 130.832 17.3256 131.164 17.5387C131.501 17.7459 131.862 17.9205 132.247 18.0625C132.632 18.1986 133.001 18.3111 133.357 18.3999L135.132 18.8615C135.712 19.0036 136.307 19.1959 136.917 19.4386C137.526 19.6812 138.091 20.0008 138.612 20.3974C139.133 20.7939 139.553 21.2852 139.873 21.8711C140.198 22.457 140.361 23.1584 140.361 23.9751C140.361 25.005 140.095 25.9194 139.562 26.7184C139.035 27.5174 138.269 28.1477 137.263 28.6094C136.263 29.071 135.052 29.3018 133.632 29.3018C132.271 29.3018 131.093 29.0858 130.098 28.6538C129.104 28.2217 128.326 27.6091 127.764 26.8161C127.201 26.017 126.891 25.0701 126.831 23.9751H129.584C129.637 24.6321 129.85 25.1796 130.223 25.6175C130.602 26.0496 131.084 26.3722 131.67 26.5852C132.262 26.7924 132.91 26.896 133.614 26.896C134.389 26.896 135.079 26.7746 135.683 26.532C136.292 26.2834 136.772 25.9401 137.121 25.5021C137.47 25.0582 137.645 24.5404 137.645 23.9485C137.645 23.4099 137.491 22.969 137.183 22.6257C136.881 22.2824 136.47 21.9983 135.949 21.7734C135.434 21.5485 134.851 21.3503 134.2 21.1786L132.052 20.5927C130.596 20.1961 129.441 19.6132 128.589 18.8438C127.743 18.0743 127.32 17.0563 127.32 15.7898C127.32 14.7422 127.604 13.8278 128.172 13.0465C128.74 12.2653 129.51 11.6586 130.48 11.2266C131.451 10.7886 132.546 10.5696 133.765 10.5696C134.996 10.5696 136.082 10.7856 137.023 11.2177C137.97 11.6497 138.716 12.2446 139.26 13.0021C139.805 13.7538 140.089 14.6179 140.113 15.5945H137.467ZM149.792 15.3636V17.4943H142.343V15.3636H149.792ZM144.341 12.0966H146.995V24.9961C146.995 25.511 147.072 25.8987 147.226 26.1591C147.38 26.4136 147.578 26.5882 147.821 26.6829C148.069 26.7717 148.339 26.8161 148.629 26.8161C148.842 26.8161 149.028 26.8013 149.188 26.7717C149.348 26.7421 149.472 26.7184 149.561 26.7006L150.04 28.8935C149.886 28.9527 149.667 29.0118 149.383 29.071C149.099 29.1361 148.744 29.1716 148.318 29.1776C147.62 29.1894 146.969 29.0651 146.365 28.8047C145.761 28.5443 145.273 28.1418 144.9 27.5973C144.527 27.0528 144.341 26.3692 144.341 25.5465V12.0966ZM161.366 23.3448V15.3636H164.03V29H161.419V26.6385H161.277C160.964 27.3665 160.461 27.9731 159.768 28.4585C159.082 28.9379 158.226 29.1776 157.202 29.1776C156.327 29.1776 155.551 28.9852 154.876 28.6005C154.208 28.2099 153.681 27.6328 153.296 26.8693C152.917 26.1058 152.728 25.1618 152.728 24.0373V15.3636H155.383V23.7177C155.383 24.6469 155.64 25.3867 156.155 25.9371C156.67 26.4876 157.339 26.7628 158.161 26.7628C158.658 26.7628 159.153 26.6385 159.644 26.3899C160.141 26.1413 160.552 25.7655 160.878 25.2624C161.209 24.7594 161.372 24.1201 161.366 23.3448ZM172.701 29.2663C171.6 29.2663 170.618 28.9852 169.754 28.4229C168.895 27.8548 168.221 27.0469 167.729 25.9993C167.244 24.9458 167.001 23.6822 167.001 22.2085C167.001 20.7347 167.247 19.4741 167.738 18.4265C168.235 17.3789 168.916 16.5769 169.78 16.0206C170.644 15.4643 171.624 15.1861 172.719 15.1861C173.565 15.1861 174.246 15.3281 174.761 15.6122C175.281 15.8904 175.684 16.2159 175.968 16.5888C176.258 16.9616 176.483 17.2901 176.643 17.5742H176.803V10.8182H179.457V29H176.865V26.8782H176.643C176.483 27.1682 176.252 27.4996 175.95 27.8725C175.654 28.2454 175.246 28.5709 174.725 28.8491C174.204 29.1272 173.53 29.2663 172.701 29.2663ZM173.287 27.0025C174.05 27.0025 174.696 26.8013 175.222 26.3988C175.755 25.9904 176.157 25.4252 176.43 24.7031C176.708 23.9811 176.847 23.1406 176.847 22.1818C176.847 21.2348 176.711 20.4062 176.439 19.696C176.166 18.9858 175.767 18.4324 175.24 18.0359C174.713 17.6393 174.062 17.4411 173.287 17.4411C172.488 17.4411 171.822 17.6482 171.289 18.0625C170.757 18.4768 170.354 19.042 170.082 19.7582C169.816 20.4743 169.683 21.2822 169.683 22.1818C169.683 23.0933 169.819 23.913 170.091 24.641C170.363 25.369 170.766 25.946 171.298 26.3722C171.837 26.7924 172.5 27.0025 173.287 27.0025ZM183.246 29V15.3636H185.9V29H183.246ZM184.586 13.2596C184.125 13.2596 183.728 13.1057 183.397 12.7979C183.071 12.4843 182.908 12.1114 182.908 11.6793C182.908 11.2414 183.071 10.8685 183.397 10.5607C183.728 10.247 184.125 10.0902 184.586 10.0902C185.048 10.0902 185.441 10.247 185.767 10.5607C186.098 10.8685 186.264 11.2414 186.264 11.6793C186.264 12.1114 186.098 12.4843 185.767 12.7979C185.441 13.1057 185.048 13.2596 184.586 13.2596ZM195.215 29.2752C193.937 29.2752 192.821 28.9822 191.868 28.3963C190.915 27.8104 190.176 26.9906 189.649 25.9371C189.122 24.8836 188.859 23.6526 188.859 22.244C188.859 20.8294 189.122 19.5924 189.649 18.533C190.176 17.4736 190.915 16.6509 191.868 16.065C192.821 15.479 193.937 15.1861 195.215 15.1861C196.494 15.1861 197.609 15.479 198.562 16.065C199.515 16.6509 200.255 17.4736 200.782 18.533C201.308 19.5924 201.572 20.8294 201.572 22.244C201.572 23.6526 201.308 24.8836 200.782 25.9371C200.255 26.9906 199.515 27.8104 198.562 28.3963C197.609 28.9822 196.494 29.2752 195.215 29.2752ZM195.224 27.0469C196.053 27.0469 196.739 26.8279 197.284 26.3899C197.828 25.9519 198.231 25.369 198.491 24.641C198.757 23.913 198.891 23.111 198.891 22.2351C198.891 21.3651 198.757 20.5661 198.491 19.8381C198.231 19.1042 197.828 18.5153 197.284 18.0714C196.739 17.6275 196.053 17.4055 195.224 17.4055C194.39 17.4055 193.697 17.6275 193.147 18.0714C192.602 18.5153 192.197 19.1042 191.93 19.8381C191.67 20.5661 191.54 21.3651 191.54 22.2351C191.54 23.111 191.67 23.913 191.93 24.641C192.197 25.369 192.602 25.9519 193.147 26.3899C193.697 26.8279 194.39 27.0469 195.224 27.0469Z" fill="#8C4227"/>
<path d="M93.9103 8.21021L106.545 11.5981L98.0405 20.6225L93.9103 8.21021Z" fill="#BF7245"/>
<path d="M96.5257 10.6748L103.113 12.648L98.8854 17.1333L96.5257 10.6748Z" fill="#FFB08E"/>
<path d="M122.377 8.21021L109.742 11.5981L118.246 20.6225L122.377 8.21021Z" fill="#BF7245"/>
<path d="M120.269 10.3278L113.409 12.5583L117.636 17.0436L120.269 10.3278Z" fill="#FFB08E"/>
<circle cx="108.324" cy="22.3237" r="12.2044" fill="#BF7245"/>
<path d="M108.324 28.4258C108.324 28.4258 106.903 30.4599 104.764 30.4599C103.747 30.4599 102.221 29.4429 102.221 29.4429" stroke="#8C4227" stroke-width="0.5" stroke-linecap="round"/>
<path d="M108.324 28.4258C108.324 28.4258 109.744 30.4599 111.883 30.4599C112.9 30.4599 114.426 29.4429 114.426 29.4429" stroke="#8C4227" stroke-width="0.5" stroke-linecap="round"/>
<path d="M108.324 28.4258L105.681 23.8492H110.966L108.324 28.4258Z" fill="#FFB08E"/>
<path d="M101.204 19.2725C101.204 19.2725 102.115 17.2385 103.238 17.2385C104.362 17.2385 105.273 19.2725 105.273 19.2725" stroke="#8C4227" stroke-width="0.6" stroke-linecap="round"/>
<path d="M115.443 19.2725C115.443 19.2725 114.532 17.2385 113.409 17.2385C112.285 17.2385 111.375 19.2725 111.375 19.2725" stroke="#8C4227" stroke-width="0.6" stroke-linecap="round"/>
</svg>
