<svg width="1440" height="74" viewBox="0 0 1440 74" fill="none" xmlns="http://www.w3.org/2000/svg">
<g clip-path="url(#clip0_30_986)">
<rect width="1440" height="74" fill="#8C4227"/>
<ellipse cx="2.16866" cy="2.89684" rx="2.16866" ry="2.89684" transform="matrix(0.64928 0.76055 -0.933433 0.358752 755.401 -0.401428)" fill="#BF7245"/>
<ellipse cx="2.21681" cy="2.9324" rx="2.21681" ry="2.9324" transform="matrix(0.263322 0.839045 -1.06904 0.151043 762.122 10.6093)" fill="#BF7245"/>
<ellipse cx="2.32358" cy="2.99769" rx="2.32358" ry="2.99769" transform="matrix(0.155504 0.840542 -1.09414 0.0911301 765.208 6.48773)" fill="#BF7245"/>
<ellipse cx="2.38553" cy="3.42354" rx="2.38553" ry="3.42354" transform="matrix(0.64928 0.76055 -0.933433 0.358752 761.892 1.33868)" fill="#BF7245"/>
<path d="M752.822 13.6597C749.572 13.717 751.309 12.2698 749.15 9.74074C746.991 7.2117 744.029 7.69315 745.712 5.58581C747.443 4.04428 755.233 4.62826 756.97 6.66249C758.847 8.86165 755.61 13.6106 752.822 13.6597Z" fill="#BF7245"/>
<ellipse cx="2.20059" cy="2.86756" rx="2.20059" ry="2.86756" transform="matrix(-0.679569 0.733611 -0.922956 -0.384907 1016.57 -0.506775)" fill="#BF7245"/>
<ellipse cx="2.24218" cy="2.90763" rx="2.24218" ry="2.90763" transform="matrix(-0.964683 0.547457 -0.711512 -0.564448 1005.32 8.68854)" fill="#BF7245"/>
<ellipse cx="2.34604" cy="2.9754" rx="2.34604" ry="2.9754" transform="matrix(-1.019 0.486057 -0.643605 -0.607456 1012.19 8.55511)" fill="#BF7245"/>
<ellipse cx="2.42064" cy="3.38894" rx="2.42064" ry="3.38894" transform="matrix(-0.679569 0.733611 -0.922956 -0.384907 1017.37 4.15289)" fill="#BF7245"/>
<path d="M996.903 4.64376C995.285 2.75098 998.008 3.09048 1000.3 0.615108C1002.59 -1.86026 1000.56 -3.38143 1004.12 -3.38738C1006.96 -3.09662 1009.89 1.78112 1008.05 3.77219C1006.06 5.92469 998.29 6.26675 996.903 4.64376Z" fill="#BF7245"/>
<ellipse cx="2.20059" cy="2.86756" rx="2.20059" ry="2.86756" transform="matrix(-0.679569 0.733611 -0.922956 -0.384907 1053.24 19.788)" fill="#BF7245"/>
<ellipse cx="2.24218" cy="2.90763" rx="2.24218" ry="2.90763" transform="matrix(-0.964683 0.547457 -0.711512 -0.564448 1041.98 28.9832)" fill="#BF7245"/>
<ellipse cx="2.34604" cy="2.9754" rx="2.34604" ry="2.9754" transform="matrix(-1.019 0.486057 -0.643605 -0.607456 1048.85 28.8499)" fill="#BF7245"/>
<ellipse cx="2.42064" cy="3.38894" rx="2.42064" ry="3.38894" transform="matrix(-0.679569 0.733611 -0.922956 -0.384907 1054.03 24.4476)" fill="#BF7245"/>
<path d="M1033.57 24.9385C1031.95 23.0457 1034.67 23.3852 1036.96 20.9098C1039.26 18.4345 1037.22 16.9133 1040.78 16.9074C1043.63 17.1981 1046.56 22.0759 1044.71 24.0669C1042.72 26.2194 1034.95 26.5615 1033.57 24.9385Z" fill="#BF7245"/>
<ellipse cx="2.20059" cy="2.86756" rx="2.20059" ry="2.86756" transform="matrix(-0.679569 0.733611 -0.922956 -0.384907 1102.73 33.9327)" fill="#BF7245"/>
<ellipse cx="2.24218" cy="2.90763" rx="2.24218" ry="2.90763" transform="matrix(-0.964683 0.547457 -0.711512 -0.564448 1091.48 43.1281)" fill="#BF7245"/>
<ellipse cx="2.34604" cy="2.9754" rx="2.34604" ry="2.9754" transform="matrix(-1.019 0.486057 -0.643605 -0.607456 1098.35 42.9947)" fill="#BF7245"/>
<ellipse cx="2.42064" cy="3.38894" rx="2.42064" ry="3.38894" transform="matrix(-0.679569 0.733611 -0.922956 -0.384907 1103.53 38.5925)" fill="#BF7245"/>
<path d="M1083.06 39.0833C1081.44 37.1906 1084.17 37.5301 1086.46 35.0547C1088.75 32.5793 1086.71 31.0581 1090.28 31.0522C1093.12 31.343 1096.05 36.2207 1094.21 38.2118C1092.21 40.3643 1084.45 40.7063 1083.06 39.0833Z" fill="#BF7245"/>
<ellipse cx="2.51809" cy="2.53182" rx="2.51809" ry="2.53182" transform="matrix(0.884563 0.466421 -0.760511 0.649326 1215.59 42.9795)" fill="#BF7245"/>
<ellipse cx="2.49841" cy="2.62695" rx="2.49841" ry="2.62695" transform="matrix(0.632819 0.631293 -1.01191 0.456667 1227.97 51.4941)" fill="#BF7245"/>
<ellipse cx="2.57498" cy="2.72444" rx="2.57498" ry="2.72444" transform="matrix(0.554145 0.667764 -1.05989 0.395974 1228.53 46.8968)" fill="#BF7245"/>
<ellipse cx="2.7699" cy="2.99215" rx="2.7699" ry="2.99215" transform="matrix(0.884563 0.466421 -0.760511 0.649326 1222.58 42.9585)" fill="#BF7245"/>
<path d="M1221.06 56.6628C1218.08 57.5342 1218.88 55.7552 1215.46 53.9543C1212.05 52.1535 1209.57 53.3454 1209.95 50.9683C1210.7 49.1036 1218.24 47.6842 1220.99 49.1327C1223.96 50.6987 1223.62 55.9156 1221.06 56.6628Z" fill="#BF7245"/>
<ellipse cx="2.51809" cy="2.53182" rx="2.51809" ry="2.53182" transform="matrix(0.884563 0.466421 -0.760511 0.649326 1241.88 20.6613)" fill="#BF7245"/>
<ellipse cx="2.49841" cy="2.62695" rx="2.49841" ry="2.62695" transform="matrix(0.632819 0.631293 -1.01191 0.456667 1254.27 29.176)" fill="#BF7245"/>
<ellipse cx="2.57498" cy="2.72444" rx="2.57498" ry="2.72444" transform="matrix(0.554145 0.667764 -1.05989 0.395974 1254.83 24.5786)" fill="#BF7245"/>
<ellipse cx="2.7699" cy="2.99215" rx="2.7699" ry="2.99215" transform="matrix(0.884563 0.466421 -0.760511 0.649326 1248.87 20.6403)" fill="#BF7245"/>
<path d="M1247.36 34.3446C1244.37 35.216 1245.18 33.437 1241.76 31.6362C1238.35 29.8353 1235.87 31.0273 1236.25 28.6501C1236.99 26.7854 1244.54 25.366 1247.29 26.8145C1250.26 28.3805 1249.91 33.5975 1247.36 34.3446Z" fill="#BF7245"/>
<ellipse cx="2.51809" cy="2.53182" rx="2.51809" ry="2.53182" transform="matrix(0.884563 0.466421 -0.760511 0.649326 1271.14 -0.863403)" fill="#BF7245"/>
<ellipse cx="2.49841" cy="2.62695" rx="2.49841" ry="2.62695" transform="matrix(0.632819 0.631293 -1.01191 0.456667 1283.53 7.65131)" fill="#BF7245"/>
<ellipse cx="2.57498" cy="2.72444" rx="2.57498" ry="2.72444" transform="matrix(0.554145 0.667764 -1.05989 0.395974 1284.08 3.05389)" fill="#BF7245"/>
<ellipse cx="2.7699" cy="2.99215" rx="2.7699" ry="2.99215" transform="matrix(0.884563 0.466421 -0.760511 0.649326 1278.13 -0.884338)" fill="#BF7245"/>
<path d="M1276.61 12.8199C1273.63 13.6913 1274.43 11.9123 1271.02 10.1114C1267.6 8.31056 1265.12 9.50255 1265.51 7.1254C1266.25 5.26071 1273.8 3.84128 1276.54 5.28981C1279.51 6.8558 1279.17 12.0727 1276.61 12.8199Z" fill="#BF7245"/>
<ellipse cx="3.09077" cy="3.39984" rx="3.09077" ry="3.39984" transform="matrix(0.685222 0.587986 -0.82087 0.714783 745.155 23.7263)" fill="#BF7245"/>
<ellipse cx="3.09077" cy="3.49519" rx="3.09077" ry="3.49519" transform="matrix(0.399527 0.779332 -0.991834 0.499284 756.217 36.8167)" fill="#BF7245"/>
<ellipse cx="3.20013" cy="3.6059" rx="3.20013" ry="3.6059" transform="matrix(0.314861 0.818492 -1.02187 0.432104 758.512 29.912)" fill="#BF7245"/>
<ellipse cx="3.39984" cy="4.018" rx="3.39984" ry="4.018" transform="matrix(0.685222 0.587986 -0.82087 0.714783 753.14 23.8523)" fill="#BF7245"/>
<path d="M746.46 44.4376C742.743 45.6815 744.3 43.0229 741.052 40.2363C737.805 37.4498 734.548 39.1874 735.842 35.6194C737.363 32.8305 746.489 30.8648 749.101 33.1062C751.924 35.5293 749.647 43.371 746.46 44.4376Z" fill="#BF7245"/>
<ellipse cx="3.09077" cy="3.39984" rx="3.09077" ry="3.39984" transform="matrix(0.685222 0.587986 -0.82087 0.714783 795.567 5.89154)" fill="#BF7245"/>
<ellipse cx="3.09077" cy="3.49519" rx="3.09077" ry="3.49519" transform="matrix(0.399527 0.779332 -0.991834 0.499284 806.628 18.9819)" fill="#BF7245"/>
<ellipse cx="3.20013" cy="3.6059" rx="3.20013" ry="3.6059" transform="matrix(0.314861 0.818492 -1.02187 0.432104 808.923 12.0772)" fill="#BF7245"/>
<ellipse cx="3.39984" cy="4.018" rx="3.39984" ry="4.018" transform="matrix(0.685222 0.587986 -0.82087 0.714783 803.552 6.01752)" fill="#BF7245"/>
<path d="M796.871 26.6028C793.154 27.8467 794.711 25.1881 791.464 22.4016C788.216 19.615 784.959 21.3527 786.254 17.7846C787.774 14.9957 796.9 13.0301 799.512 15.2714C802.336 17.6945 800.058 25.5362 796.871 26.6028Z" fill="#BF7245"/>
<ellipse cx="3.09077" cy="3.39984" rx="3.09077" ry="3.39984" transform="matrix(-0.597663 0.847948 -0.816823 -0.506541 970.215 2.99536)" fill="#BF7245"/>
<ellipse cx="3.09077" cy="3.49519" rx="3.09077" ry="3.49519" transform="matrix(-0.819924 0.651045 -0.593401 -0.742793 956.68 17.9752)" fill="#BF7245"/>
<ellipse cx="3.20013" cy="3.6059" rx="3.20013" ry="3.6059" transform="matrix(-0.866841 0.586396 -0.522481 -0.794821 964.263 17.6304)" fill="#BF7245"/>
<ellipse cx="3.39984" cy="4.018" rx="3.39984" ry="4.018" transform="matrix(-0.597663 0.847948 -0.816823 -0.506541 970.515 10.4628)" fill="#BF7245"/>
<path d="M947.917 11.6398C946.37 8.63104 949.327 9.12449 952.159 5.10592C954.991 1.08735 952.937 -1.31669 956.861 -1.39392C959.956 -0.981018 962.578 6.79614 960.299 10.0285C957.836 13.5229 949.243 14.2197 947.917 11.6398Z" fill="#BF7245"/>
<ellipse cx="3.09077" cy="3.39984" rx="3.09077" ry="3.39984" transform="matrix(-0.597663 0.847948 -0.816823 -0.506541 1006.88 27.595)" fill="#BF7245"/>
<ellipse cx="3.09077" cy="3.49519" rx="3.09077" ry="3.49519" transform="matrix(-0.819924 0.651045 -0.593401 -0.742793 993.343 42.5748)" fill="#BF7245"/>
<ellipse cx="3.20013" cy="3.6059" rx="3.20013" ry="3.6059" transform="matrix(-0.866841 0.586396 -0.522481 -0.794821 1000.93 42.23)" fill="#BF7245"/>
<ellipse cx="3.39984" cy="4.018" rx="3.39984" ry="4.018" transform="matrix(-0.597663 0.847948 -0.816823 -0.506541 1007.18 35.0625)" fill="#BF7245"/>
<path d="M984.579 36.2395C983.033 33.2307 985.989 33.7242 988.822 29.7056C991.654 25.687 989.6 23.283 993.524 23.2058C996.619 23.6187 999.24 31.3958 996.962 34.6282C994.499 38.1226 985.905 38.8194 984.579 36.2395Z" fill="#BF7245"/>
<ellipse cx="2.87082" cy="2.74481" rx="2.87082" ry="2.74481" transform="matrix(-0.577129 0.846018 -0.825781 -0.518904 1070.18 46.6624)" fill="#BF7245"/>
<ellipse cx="2.83742" cy="2.86466" rx="2.83742" ry="2.86466" transform="matrix(-0.778978 0.674125 -0.572823 -0.781254 1058.2 60.6725)" fill="#BF7245"/>
<ellipse cx="2.91766" cy="2.98066" rx="2.91766" ry="2.98066" transform="matrix(-0.82482 0.617437 -0.493343 -0.834745 1064.59 60.0372)" fill="#BF7245"/>
<ellipse cx="3.1579" cy="3.24387" rx="3.1579" ry="3.24387" transform="matrix(-0.577129 0.846018 -0.825781 -0.518904 1070.13 53.3433)" fill="#BF7245"/>
<path d="M1051.09 55.3705C1049.9 52.74 1052.37 53.0551 1054.91 49.331C1057.45 45.6069 1055.82 43.5403 1059.12 43.3023C1061.71 43.5393 1063.6 50.398 1061.56 53.3935C1059.35 56.6318 1052.1 57.6261 1051.09 55.3705Z" fill="#BF7245"/>
<ellipse cx="1093.37" cy="65.5093" rx="3.45378" ry="2.66614" fill="#8C4227"/>
<ellipse cx="3.09077" cy="3.39984" rx="3.09077" ry="3.39984" transform="matrix(0.795748 0.521232 -0.63622 0.830859 1257.65 42.8875)" fill="#BF7245"/>
<ellipse cx="3.09077" cy="3.49519" rx="3.09077" ry="3.49519" transform="matrix(0.561488 0.751515 -0.85013 0.630265 1271.3 54.9918)" fill="#BF7245"/>
<ellipse cx="3.20013" cy="3.6059" rx="3.20013" ry="3.6059" transform="matrix(0.488145 0.801768 -0.894262 0.564957 1271.98 47.6378)" fill="#BF7245"/>
<ellipse cx="3.39984" cy="4.018" rx="3.39984" ry="4.018" transform="matrix(0.795748 0.521232 -0.63622 0.830859 1265.42 42.0645)" fill="#BF7245"/>
<path d="M1263.54 63.9702C1260.21 65.689 1261.13 62.7771 1257.36 60.3069C1253.58 57.8366 1250.81 60.0069 1251.27 56.1937C1252.12 53.1525 1260.53 50.0487 1263.57 52.0356C1266.85 54.1836 1266.39 62.4964 1263.54 63.9702Z" fill="#BF7245"/>
<ellipse cx="3.09077" cy="3.39984" rx="3.09077" ry="3.39984" transform="matrix(0.795748 0.521232 -0.63622 0.830859 1284.23 21.3628)" fill="#BF7245"/>
<ellipse cx="3.09077" cy="3.49519" rx="3.09077" ry="3.49519" transform="matrix(0.561488 0.751515 -0.85013 0.630265 1297.88 33.467)" fill="#BF7245"/>
<ellipse cx="3.20013" cy="3.6059" rx="3.20013" ry="3.6059" transform="matrix(0.488145 0.801768 -0.894262 0.564957 1298.56 26.113)" fill="#BF7245"/>
<ellipse cx="3.39984" cy="4.018" rx="3.39984" ry="4.018" transform="matrix(0.795748 0.521232 -0.63622 0.830859 1292 20.5397)" fill="#BF7245"/>
<path d="M1290.12 42.4455C1286.79 44.1642 1287.71 41.2523 1283.94 38.7821C1280.16 36.3119 1277.39 38.4822 1277.85 34.669C1278.7 31.6278 1287.11 28.524 1290.15 30.5109C1293.43 32.6589 1292.97 40.9717 1290.12 42.4455Z" fill="#BF7245"/>
<ellipse cx="3.09077" cy="3.39984" rx="3.09077" ry="3.39984" transform="matrix(0.795748 0.521232 -0.63622 0.830859 1312.84 -0.161926)" fill="#BF7245"/>
<ellipse cx="3.09077" cy="3.49519" rx="3.09077" ry="3.49519" transform="matrix(0.561488 0.751515 -0.85013 0.630265 1326.49 11.9423)" fill="#BF7245"/>
<ellipse cx="3.20013" cy="3.6059" rx="3.20013" ry="3.6059" transform="matrix(0.488145 0.801768 -0.894262 0.564957 1327.18 4.58832)" fill="#BF7245"/>
<ellipse cx="3.39984" cy="4.018" rx="3.39984" ry="4.018" transform="matrix(0.795748 0.521232 -0.63622 0.830859 1320.61 -0.984985)" fill="#BF7245"/>
<path d="M1318.74 20.9207C1315.41 22.6395 1316.33 19.7276 1312.55 17.2574C1308.78 14.7872 1306.01 16.9575 1306.47 13.1443C1307.32 10.1031 1315.73 6.99923 1318.76 8.98614C1322.04 11.1341 1321.59 19.4469 1318.74 20.9207Z" fill="#BF7245"/>
<ellipse cx="2.25391" cy="2.81701" rx="2.25391" ry="2.81701" transform="matrix(0.72475 0.689012 -0.903784 0.427989 709.768 14.5903)" fill="#BF7245"/>
<ellipse cx="2.28472" cy="2.86497" rx="2.28472" ry="2.86497" transform="matrix(0.368732 0.794322 -1.06761 0.223117 718.007 25.1268)" fill="#BF7245"/>
<ellipse cx="2.38381" cy="2.93704" rx="2.38381" ry="2.93704" transform="matrix(0.266006 0.806071 -1.09869 0.16323 720.5 20.8284)" fill="#BF7245"/>
<ellipse cx="2.4793" cy="3.32919" rx="2.4793" ry="3.32919" transform="matrix(0.72475 0.689012 -0.903784 0.427989 716.475 15.912)" fill="#BF7245"/>
<path d="M709.177 28.752C705.948 29.0146 707.475 27.4639 704.97 25.0827C702.466 22.7015 699.584 23.3682 700.964 21.1638C702.471 19.5196 710.308 19.6083 712.322 21.5236C714.5 23.5942 711.945 28.5268 709.177 28.752Z" fill="#BF7245"/>
<path fill-rule="evenodd" clip-rule="evenodd" d="M0 0L1440 74.456L0 75V0Z" fill="#BF7245"/>
<ellipse cx="24.6825" cy="46.0376" rx="14.8019" ry="11.4263" fill="#8C4227"/>
<ellipse cx="95.2277" cy="26.6614" rx="14.8019" ry="11.4263" fill="#8C4227"/>
<ellipse cx="148.48" cy="50.3229" rx="14.8019" ry="11.4263" fill="#8C4227"/>
<ellipse cx="209.661" cy="59.7962" rx="8.88114" ry="6.8558" fill="#8C4227"/>
<ellipse cx="284.623" cy="54.1787" rx="8.88114" ry="6.8558" fill="#8C4227"/>
<ellipse cx="404.094" cy="37.6583" rx="10.8547" ry="8.37931" fill="#8C4227"/>
<ellipse cx="439.125" cy="57.1301" rx="10.3613" ry="7.99843" fill="#8C4227"/>
<ellipse cx="497.346" cy="63.2241" rx="7.40095" ry="5.71316" fill="#8C4227"/>
<ellipse cx="540.765" cy="39.6097" rx="7.40095" ry="5.71316" fill="#8C4227"/>
<ellipse cx="562.968" cy="65.1285" rx="4.93396" ry="3.80878" fill="#8C4227"/>
<ellipse cx="504.747" cy="36.9435" rx="4.93396" ry="3.80878" fill="#8C4227"/>
<ellipse cx="30.6034" cy="12.5674" rx="4.93396" ry="3.80878" fill="#8C4227"/>
<ellipse cx="317.898" cy="38.5643" rx="4.93396" ry="3.80878" fill="#8C4227"/>
<ellipse cx="590.598" cy="44.5611" rx="4.93396" ry="3.80878" fill="#8C4227"/>
<ellipse cx="893.543" cy="61.3197" rx="4.93396" ry="3.80878" fill="#8C4227"/>
<ellipse cx="973.474" cy="64.3668" rx="4.93396" ry="3.80878" fill="#8C4227"/>
<ellipse cx="1036.63" cy="60.0344" rx="4.93396" ry="3.80878" fill="#8C4227"/>
<ellipse cx="729.736" cy="64.3667" rx="5.92076" ry="4.57053" fill="#8C4227"/>
<ellipse cx="730.229" cy="46.4655" rx="3.45378" ry="2.66614" fill="#8C4227"/>
<ellipse cx="857.525" cy="52.5595" rx="3.45378" ry="2.66614" fill="#8C4227"/>
<ellipse cx="936.469" cy="59.4153" rx="3.45378" ry="2.66614" fill="#8C4227"/>
<ellipse cx="634.51" cy="43.4185" rx="3.45378" ry="2.66614" fill="#8C4227"/>
<ellipse cx="1004.56" cy="63.7006" rx="3.45378" ry="2.66614" fill="#8C4227"/>
<ellipse cx="1088.43" cy="68.5564" rx="3.45378" ry="2.66614" fill="#8C4227"/>
<ellipse cx="1103.24" cy="64.1771" rx="3.45378" ry="2.66614" fill="#8C4227"/>
<ellipse cx="1208.82" cy="69.3181" rx="3.45378" ry="2.66614" fill="#8C4227"/>
<ellipse cx="1186.13" cy="66.9859" rx="2.46698" ry="1.90439" fill="#8C4227"/>
<ellipse cx="1248.3" cy="67.7946" rx="2.46698" ry="1.90439" fill="#8C4227"/>
<ellipse cx="1273.95" cy="70.0799" rx="2.46698" ry="1.90439" fill="#8C4227"/>
<ellipse cx="1293.69" cy="69.3182" rx="1.48019" ry="1.14263" fill="#8C4227"/>
<ellipse cx="1307.5" cy="70.8417" rx="1.48019" ry="1.14263" fill="#8C4227"/>
<ellipse cx="1316.38" cy="70.0799" rx="1.48019" ry="1.14263" fill="#8C4227"/>
<ellipse cx="1333.16" cy="70.8417" rx="1.48019" ry="1.14263" fill="#8C4227"/>
<ellipse cx="1123.96" cy="67.0329" rx="2.46698" ry="1.90439" fill="#8C4227"/>
<ellipse cx="1160.47" cy="66.2711" rx="3.45378" ry="2.66614" fill="#8C4227"/>
<ellipse cx="775.622" cy="64.7476" rx="3.45378" ry="2.66614" fill="#8C4227"/>
<ellipse cx="818.054" cy="52.5595" rx="3.45378" ry="2.66614" fill="#8C4227"/>
<ellipse cx="687.797" cy="67.0329" rx="3.45378" ry="2.66614" fill="#8C4227"/>
<ellipse cx="832.362" cy="65.1285" rx="4.93396" ry="3.80878" fill="#8C4227"/>
<ellipse cx="778.089" cy="49.1317" rx="4.93396" ry="3.80878" fill="#8C4227"/>
<ellipse cx="623.655" cy="61.7006" rx="7.40095" ry="5.71316" fill="#8C4227"/>
<ellipse cx="680.889" cy="45.7038" rx="7.40095" ry="5.71316" fill="#8C4227"/>
<ellipse cx="466.755" cy="38.0862" rx="7.40095" ry="5.71316" fill="#8C4227"/>
<ellipse cx="181.01" cy="24.232" rx="8.88114" ry="6.8558" fill="#8C4227"/>
<ellipse cx="78.9908" cy="55.2257" rx="8.88114" ry="6.8558" fill="#8C4227"/>
<ellipse cx="245.22" cy="32.8495" rx="14.8019" ry="11.4263" fill="#8C4227"/>
<ellipse cx="357.68" cy="52.9404" rx="14.8019" ry="11.4263" fill="#8C4227"/>
</g>
<defs>
<clipPath id="clip0_30_986">
<rect width="1440" height="74" fill="white"/>
</clipPath>
</defs>
</svg>
