<svg width="44" height="44" viewBox="0 0 44 44" fill="none" xmlns="http://www.w3.org/2000/svg">
<rect width="44" height="44" rx="22" fill="#8C4227"/>
<path d="M33.5 23.5C34.3284 23.5 35 22.8284 35 22C35 21.1716 34.3284 20.5 33.5 20.5V23.5ZM9.93934 20.9393C9.35355 21.5251 9.35355 22.4749 9.93934 23.0607L19.4853 32.6066C20.0711 33.1924 21.0208 33.1924 21.6066 32.6066C22.1924 32.0208 22.1924 31.0711 21.6066 30.4853L13.1213 22L21.6066 13.5147C22.1924 12.9289 22.1924 11.9792 21.6066 11.3934C21.0208 10.8076 20.0711 10.8076 19.4853 11.3934L9.93934 20.9393ZM33.5 20.5L11 20.5V23.5L33.5 23.5V20.5Z" fill="white"/>
</svg>
